<svg id="a68deba4-cd7e-4329-8ef5-8e32be382bf6" data-name="Layer 2" xmlns="http://www.w3.org/2000/svg" width="60mm" height="20mm" viewBox="0 0 170.08 56.69">
  <defs>
    <style>
      .fd316c9b-c46c-442e-890f-2ee54f8243f0 {
        fill: #3d5164;
      }

      .aa33f67e-92de-4efb-8144-3666fdf012b7 {
        opacity: 0.25;
      }

      .a46c6c20-92d1-41fa-b839-ee3cd43904b3 {
        fill: #e7245c;
      }

      .a51cfdf6-c456-40b3-b7bb-e55837c42b01 {
        opacity: 0.5;
      }

      .b1e4cd56-b929-43cd-9f81-9842d06ab27d {
        fill: #941b80;
      }

      .a7355aa9-4dfd-419e-a58c-261db4203a39 {
        opacity: 0.75;
      }

      .b6f4bc8a-508f-4b3b-a199-8080fa3d7556 {
        fill: #662482;
      }
    </style>
  </defs>
  <g>
    <path class="fd316c9b-c46c-442e-890f-2ee54f8243f0" d="M39,33.65a4.19,4.19,0,0,1-1.89,3.28L30.8,40.58a4.22,4.22,0,0,1-3.79,0L20.7,36.93a4.19,4.19,0,0,1-1.89-3.28V26.36a4.19,4.19,0,0,1,1.89-3.27L27,19.44a4.22,4.22,0,0,1,3.79,0l6.31,3.65A4.19,4.19,0,0,1,39,26.36Z"/>
    <g>
      <path class="fd316c9b-c46c-442e-890f-2ee54f8243f0" d="M61.15,44.75V19.85a1,1,0,0,1,.56-1,3.81,3.81,0,0,1,1.78-.32h1.66a4.85,4.85,0,0,1,1.55.22,2,2,0,0,1,1,.86L76.9,33.81l1,1.57V19.85a1,1,0,0,1,.57-1,3.81,3.81,0,0,1,1.78-.32H81.4a3.72,3.72,0,0,1,1.76.32,1,1,0,0,1,.56,1v24.9c0,.81-.77,1.22-2.32,1.22H79.91a4.71,4.71,0,0,1-1.55-.21,1.88,1.88,0,0,1-1-.82L67.75,30.22,66.92,29V44.75c0,.81-.77,1.22-2.32,1.22H63.49C61.93,46,61.15,45.56,61.15,44.75Z"/>
      <path class="fd316c9b-c46c-442e-890f-2ee54f8243f0" d="M89.44,44.67a6,6,0,0,1-1.39-4.14A7.57,7.57,0,0,1,88.86,37a6.29,6.29,0,0,1,3.28-2.63,18.31,18.31,0,0,1,7.07-1.07V32a2,2,0,0,0-.72-1.69,3.89,3.89,0,0,0-2.3-.55,8.12,8.12,0,0,0-2.25.28,17.62,17.62,0,0,0-2,.73,2.45,2.45,0,0,1-.7.26c-.26,0-.55-.19-.86-.59a6,6,0,0,1-.82-1.35A3,3,0,0,1,89.17,28c0-.46.32-.89,1-1.3a8.21,8.21,0,0,1,2.68-1,17,17,0,0,1,3.78-.38Q101,25.26,103,27a6,6,0,0,1,2,4.76V39c0,1.21,0,2.15.1,2.82s.16,1.33.27,2a4.55,4.55,0,0,1,.11.83c0,.29-.27.53-.82.72a9.39,9.39,0,0,1-1.87.42,13.68,13.68,0,0,1-1.68.13,1,1,0,0,1-1-.58,6.2,6.2,0,0,1-.47-1.59c0-.08,0-.17,0-.26a2.5,2.5,0,0,0-.07-.26,4.69,4.69,0,0,1-.93,1.11,6.81,6.81,0,0,1-1.93,1.28,6.56,6.56,0,0,1-2.85.58A5.56,5.56,0,0,1,89.44,44.67ZM97.76,41a4.21,4.21,0,0,0,1.45-1.76V37.07q-5.44,0-5.45,2.86a1.63,1.63,0,0,0,.51,1.25,2.05,2.05,0,0,0,1.44.48A3.44,3.44,0,0,0,97.76,41Z"/>
      <path class="fd316c9b-c46c-442e-890f-2ee54f8243f0" d="M136.65,26.79A6.92,6.92,0,0,1,138,31.53V44.75c0,.81-.79,1.22-2.37,1.22H134.6c-1.54,0-2.32-.41-2.32-1.22V32.41a2.7,2.7,0,0,0-.53-1.8A2.3,2.3,0,0,0,130,30a2.69,2.69,0,0,0-1.84.67,5.33,5.33,0,0,0-1.22,1.54V44.75c0,.81-.78,1.22-2.34,1.22h-1.09c-1.55,0-2.32-.41-2.32-1.22V32.41a2.65,2.65,0,0,0-.54-1.8,2.24,2.24,0,0,0-1.76-.61,2.77,2.77,0,0,0-1.85.7,5.06,5.06,0,0,0-1.21,1.56V44.75c0,.81-.79,1.22-2.36,1.22h-1.07c-1.55,0-2.32-.41-2.32-1.22V32.41a24.09,24.09,0,0,0-.38-4.66,5.31,5.31,0,0,1-.1-.83c0-.29.27-.53.82-.71a9.94,9.94,0,0,1,1.85-.41,15.83,15.83,0,0,1,1.68-.13,1,1,0,0,1,1,.5,6,6,0,0,1,.49,1.47l.13.57a7.66,7.66,0,0,1,2.45-2.1,6.69,6.69,0,0,1,3.31-.85,6.55,6.55,0,0,1,3.27.72,4.26,4.26,0,0,1,1.85,2.23,8,8,0,0,1,2.58-2.1,7.1,7.1,0,0,1,3.41-.85A5.54,5.54,0,0,1,136.65,26.79Z"/>
      <path class="fd316c9b-c46c-442e-890f-2ee54f8243f0" d="M144.75,43.49c-1.68-1.83-2.51-4.37-2.51-7.63,0-3.66.83-6.34,2.51-8a9.28,9.28,0,0,1,6.94-2.56,8.08,8.08,0,0,1,4.8,1.33,7.68,7.68,0,0,1,2.73,3.59,14.06,14.06,0,0,1,.87,5.1,1.73,1.73,0,0,1-.39.87,5.75,5.75,0,0,1-.86,1,1.32,1.32,0,0,1-.74.44h-9.91a4.42,4.42,0,0,0,1.32,3.16,4.8,4.8,0,0,0,3.14.93,7.15,7.15,0,0,0,2-.25,17.4,17.4,0,0,0,1.89-.67,2.55,2.55,0,0,1,.83-.28,1.29,1.29,0,0,1,.87.56,5.66,5.66,0,0,1,.8,1.28,2.83,2.83,0,0,1,.34,1.11c0,.6-.4,1.11-1.21,1.53a10.4,10.4,0,0,1-2.87,1,15.69,15.69,0,0,1-2.89.32C149,46.23,146.43,45.32,144.75,43.49Zm9.74-9.75a5.28,5.28,0,0,0-.7-2.87,2.35,2.35,0,0,0-2.1-1.09q-2.9,0-3.5,4Z"/>
    </g>
    <g class="aa33f67e-92de-4efb-8144-3666fdf012b7">
      <path class="a46c6c20-92d1-41fa-b839-ee3cd43904b3" d="M42.68,16.12a1.14,1.14,0,0,1,0,2.16l-11.9,6.87a4.11,4.11,0,0,1-3.74,0L15.13,18.28a1.14,1.14,0,0,1,0-2.16L27,9.25a4.11,4.11,0,0,1,3.74,0Z"/>
    </g>
    <g class="a51cfdf6-c456-40b3-b7bb-e55837c42b01">
      <path class="b1e4cd56-b929-43cd-9f81-9842d06ab27d" d="M47.82,38.77A4.15,4.15,0,0,1,46,42l-11.9,6.87c-1,.6-1.87.11-1.87-1.08V34.06a4.14,4.14,0,0,1,1.87-3.24L46,23.94c1-.59,1.87-.1,1.87,1.08Z"/>
    </g>
    <g class="a7355aa9-4dfd-419e-a58c-261db4203a39">
      <path class="b6f4bc8a-508f-4b3b-a199-8080fa3d7556" d="M23.77,30.82a4.14,4.14,0,0,1,1.87,3.24V47.8c0,1.19-.84,1.68-1.87,1.08L11.86,42A4.15,4.15,0,0,1,10,38.77V25c0-1.18.84-1.67,1.87-1.08Z"/>
    </g>
  </g>
</svg>
