<svg id="fbef2daa-1fe1-46ad-be46-462f901eabf4" data-name="Layer 2" xmlns="http://www.w3.org/2000/svg" width="60mm" height="20mm" viewBox="0 0 170.08 56.69">
  <defs>
    <style>
      .fae91055-2e73-4676-a940-c33ffd911f78 {
        fill: #3d5164;
      }

      .e484e46b-8019-47b7-bd22-47e25b99ba09 {
        opacity: 0.65;
      }

      .f2bbadf9-f3d5-4995-89cc-0ccbfaab8cb0 {
        fill: #ffc107;
      }

      .e33873c8-10e8-48bb-a4a6-c96150ac0667 {
        fill: #c1390f;
      }

      .b7bb8ab2-7707-4808-9e9f-8c8abb671b9d {
        fill: #3e2723;
      }
    </style>
  </defs>
  <g>
    <path class="fae91055-2e73-4676-a940-c33ffd911f78" d="M39,32.94a4.19,4.19,0,0,1-1.89,3.27L30.8,39.86a4.22,4.22,0,0,1-3.79,0L20.7,36.21a4.19,4.19,0,0,1-1.89-3.27V25.65a4.19,4.19,0,0,1,1.89-3.28L27,18.72a4.22,4.22,0,0,1,3.79,0l6.31,3.65A4.19,4.19,0,0,1,39,25.65Z"/>
    <g>
      <path class="fae91055-2e73-4676-a940-c33ffd911f78" d="M61.14,44V19.13a1,1,0,0,1,.57-.95,3.83,3.83,0,0,1,1.78-.31h1.66a4.88,4.88,0,0,1,1.55.21,2,2,0,0,1,1,.86l9.18,14.15,1,1.58V19.13a1,1,0,0,1,.57-.95,3.83,3.83,0,0,1,1.78-.31H81.4a3.74,3.74,0,0,1,1.76.31,1,1,0,0,1,.56.95V44c0,.81-.77,1.22-2.32,1.22H79.91a5,5,0,0,1-1.55-.2,2,2,0,0,1-1-.83L67.75,29.5l-.83-1.22V44c0,.81-.77,1.22-2.32,1.22H63.49C61.93,45.25,61.14,44.84,61.14,44Z"/>
      <path class="fae91055-2e73-4676-a940-c33ffd911f78" d="M89.44,44a6,6,0,0,1-1.39-4.14,7.5,7.5,0,0,1,.81-3.51,6.25,6.25,0,0,1,3.28-2.64,18.47,18.47,0,0,1,7.07-1.07V31.3a2,2,0,0,0-.72-1.69,3.9,3.9,0,0,0-2.3-.54,8.15,8.15,0,0,0-2.25.27,19.71,19.71,0,0,0-2,.73,2.45,2.45,0,0,1-.7.26c-.26,0-.55-.19-.86-.59a6,6,0,0,1-.82-1.35,3,3,0,0,1-.35-1.16c0-.45.32-.89,1-1.3a8.45,8.45,0,0,1,2.68-1,17.66,17.66,0,0,1,3.78-.38q4.38,0,6.37,1.74A6,6,0,0,1,105,31v7.29c0,1.21,0,2.15.1,2.82s.16,1.33.27,2a4.66,4.66,0,0,1,.11.83c0,.29-.27.54-.82.72a9.39,9.39,0,0,1-1.87.42,13.68,13.68,0,0,1-1.68.13,1,1,0,0,1-1-.58,6,6,0,0,1-.47-1.58c0-.09,0-.18,0-.27s0-.17-.07-.26a4.89,4.89,0,0,1-.93,1.12,7.26,7.26,0,0,1-1.93,1.28,6.71,6.71,0,0,1-2.85.58A5.56,5.56,0,0,1,89.44,44Zm8.32-3.7a4.15,4.15,0,0,0,1.45-1.76V36.35q-5.44,0-5.45,2.87a1.62,1.62,0,0,0,.51,1.24,2.05,2.05,0,0,0,1.44.48A3.44,3.44,0,0,0,97.76,40.25Z"/>
      <path class="fae91055-2e73-4676-a940-c33ffd911f78" d="M136.65,26.07A6.93,6.93,0,0,1,138,30.82V44c0,.81-.79,1.22-2.37,1.22H134.6c-1.54,0-2.32-.41-2.32-1.22V31.69a2.67,2.67,0,0,0-.53-1.79,2.27,2.27,0,0,0-1.79-.62,2.69,2.69,0,0,0-1.84.67,5.46,5.46,0,0,0-1.22,1.54V44c0,.81-.78,1.22-2.34,1.22h-1.09c-1.55,0-2.32-.41-2.32-1.22V31.69a2.62,2.62,0,0,0-.54-1.79,2.21,2.21,0,0,0-1.76-.62A2.77,2.77,0,0,0,117,30a5.06,5.06,0,0,0-1.21,1.56V44c0,.81-.79,1.22-2.36,1.22h-1.08c-1.54,0-2.31-.41-2.31-1.22V31.69a24.09,24.09,0,0,0-.38-4.66,5.31,5.31,0,0,1-.1-.83c0-.29.27-.53.82-.71a9.94,9.94,0,0,1,1.85-.41,15.83,15.83,0,0,1,1.68-.13,1,1,0,0,1,1,.51,5.71,5.71,0,0,1,.49,1.46l.13.57a7.66,7.66,0,0,1,2.45-2.1,6.69,6.69,0,0,1,3.31-.85,6.55,6.55,0,0,1,3.27.72,4.2,4.2,0,0,1,1.84,2.23,8.13,8.13,0,0,1,2.59-2.1,7.1,7.1,0,0,1,3.41-.85A5.54,5.54,0,0,1,136.65,26.07Z"/>
      <path class="fae91055-2e73-4676-a940-c33ffd911f78" d="M144.75,42.77c-1.68-1.83-2.51-4.37-2.51-7.62,0-3.66.83-6.35,2.51-8a9.28,9.28,0,0,1,6.94-2.56,8.08,8.08,0,0,1,4.8,1.33,7.68,7.68,0,0,1,2.73,3.59,14.06,14.06,0,0,1,.87,5.1,1.66,1.66,0,0,1-.39.87,5.82,5.82,0,0,1-.86,1,1.35,1.35,0,0,1-.74.43h-9.91A4.42,4.42,0,0,0,149.51,40a4.8,4.8,0,0,0,3.14.93,7.15,7.15,0,0,0,2-.25,19.62,19.62,0,0,0,1.89-.66,2.66,2.66,0,0,1,.83-.29,1.29,1.29,0,0,1,.87.56,5.66,5.66,0,0,1,.8,1.28,2.83,2.83,0,0,1,.34,1.11c0,.6-.4,1.11-1.21,1.53a10.4,10.4,0,0,1-2.87,1,15,15,0,0,1-2.89.33C149,45.52,146.43,44.6,144.75,42.77ZM154.49,33a5.29,5.29,0,0,0-.7-2.88,2.34,2.34,0,0,0-2.1-1.08q-2.9,0-3.5,4Z"/>
    </g>
    <g class="e484e46b-8019-47b7-bd22-47e25b99ba09">
      <path class="f2bbadf9-f3d5-4995-89cc-0ccbfaab8cb0" d="M42.68,15.4a1.14,1.14,0,0,1,0,2.16l-11.9,6.88a4.17,4.17,0,0,1-3.74,0L15.13,17.56a1.14,1.14,0,0,1,0-2.16L27,8.53a4.17,4.17,0,0,1,3.74,0Z"/>
    </g>
    <g class="e484e46b-8019-47b7-bd22-47e25b99ba09">
      <path class="e33873c8-10e8-48bb-a4a6-c96150ac0667" d="M47.82,38.05A4.14,4.14,0,0,1,46,41.29l-11.9,6.87c-1,.6-1.87.11-1.87-1.08V33.34a4.14,4.14,0,0,1,1.87-3.24L46,23.22c1-.59,1.87-.1,1.87,1.08Z"/>
    </g>
    <g class="e484e46b-8019-47b7-bd22-47e25b99ba09">
      <path class="b7bb8ab2-7707-4808-9e9f-8c8abb671b9d" d="M23.77,30.1a4.14,4.14,0,0,1,1.87,3.24V47.08c0,1.19-.84,1.68-1.87,1.08L11.86,41.29A4.16,4.16,0,0,1,10,38.05V24.3c0-1.18.85-1.67,1.87-1.08Z"/>
    </g>
  </g>
</svg>
