<svg id="b4cb572f-8b34-4157-bb38-244ad2a01ed9" data-name="Layer 2" xmlns="http://www.w3.org/2000/svg" width="60mm" height="20mm" viewBox="0 0 170.08 56.69">
  <defs>
    <style>
      .a6919e54-9ea6-489b-a72b-b0a74d0f2978 {
        fill: #3d5164;
      }

      .a5b4495e-d98b-4b59-85c4-334f7106d0d4, .ada278d7-0b28-4154-800a-11e380b793fb, .f48d47b5-f9cc-4c68-9775-809ff0fb8bdd {
        fill: none;
        stroke-linecap: round;
        stroke-miterlimit: 10;
        stroke-width: 7.6px;
        opacity: 0.65;
      }

      .f48d47b5-f9cc-4c68-9775-809ff0fb8bdd {
        stroke: #e91e63;
      }

      .ada278d7-0b28-4154-800a-11e380b793fb {
        stroke: #03a9f4;
      }

      .a5b4495e-d98b-4b59-85c4-334f7106d0d4 {
        stroke: #9c27b0;
      }
    </style>
  </defs>
  <g>
    <path class="a6919e54-9ea6-489b-a72b-b0a74d0f2978" d="M60.65,44.41V19.52a1,1,0,0,1,.57-.95A3.81,3.81,0,0,1,63,18.25h1.66a4.59,4.59,0,0,1,1.55.22,2,2,0,0,1,1,.85L76.4,33.48l1,1.57V19.52a1,1,0,0,1,.57-.95,3.81,3.81,0,0,1,1.78-.32h1.11a3.72,3.72,0,0,1,1.76.32,1,1,0,0,1,.56.95V44.41c0,.82-.77,1.23-2.32,1.23H79.42a4.71,4.71,0,0,1-1.55-.21,1.92,1.92,0,0,1-1-.82L67.26,29.89l-.83-1.23V44.41c0,.82-.77,1.23-2.32,1.23H63C61.43,45.64,60.65,45.23,60.65,44.41Z"/>
    <path class="a6919e54-9ea6-489b-a72b-b0a74d0f2978" d="M89,44.34a6,6,0,0,1-1.39-4.15,7.5,7.5,0,0,1,.81-3.51A6.35,6.35,0,0,1,91.65,34,18.47,18.47,0,0,1,98.72,33V31.68A2,2,0,0,0,98,30a3.82,3.82,0,0,0-2.3-.55,8.15,8.15,0,0,0-2.25.27,19.92,19.92,0,0,0-2,.74,2.85,2.85,0,0,1-.7.26c-.26,0-.55-.2-.86-.59A6.3,6.3,0,0,1,89,28.77a3,3,0,0,1-.35-1.16c0-.45.32-.88,1-1.3a8.69,8.69,0,0,1,2.68-1,17.66,17.66,0,0,1,3.78-.38q4.38,0,6.37,1.74a6,6,0,0,1,2,4.76V38.7c0,1.21,0,2.15.1,2.83s.15,1.33.27,2a4.55,4.55,0,0,1,.11.83c0,.29-.27.53-.82.72a8.76,8.76,0,0,1-1.87.41,14,14,0,0,1-1.68.14,1,1,0,0,1-1-.58,6.2,6.2,0,0,1-.47-1.59c0-.09,0-.17,0-.26a2,2,0,0,0-.07-.26A5.12,5.12,0,0,1,98.09,44a7,7,0,0,1-1.93,1.28,6.56,6.56,0,0,1-2.85.58A5.56,5.56,0,0,1,89,44.34Zm8.32-3.7a4.27,4.27,0,0,0,1.45-1.76V36.73q-5.44,0-5.45,2.87a1.64,1.64,0,0,0,.51,1.25,2,2,0,0,0,1.44.48A3.44,3.44,0,0,0,97.27,40.64Z"/>
    <path class="a6919e54-9ea6-489b-a72b-b0a74d0f2978" d="M136.16,26.45a7,7,0,0,1,1.39,4.75V44.41q0,1.23-2.37,1.23h-1.07c-1.54,0-2.32-.41-2.32-1.23V32.08a2.7,2.7,0,0,0-.53-1.8,2.28,2.28,0,0,0-1.79-.61,2.64,2.64,0,0,0-1.84.67,5.33,5.33,0,0,0-1.22,1.54V44.41q0,1.23-2.34,1.23H123c-1.55,0-2.32-.41-2.32-1.23V32.08a2.65,2.65,0,0,0-.54-1.8,2.22,2.22,0,0,0-1.76-.61,2.72,2.72,0,0,0-1.85.7,5,5,0,0,0-1.21,1.55V44.41c0,.82-.79,1.23-2.36,1.23h-1.08q-2.31,0-2.31-1.23V32.08a24.09,24.09,0,0,0-.38-4.66,5.88,5.88,0,0,1-.11-.83c0-.3.28-.53.83-.72a10,10,0,0,1,1.85-.4,13.54,13.54,0,0,1,1.68-.13,1,1,0,0,1,1,.5,6,6,0,0,1,.49,1.47l.13.57a7.32,7.32,0,0,1,2.45-2.1,6.67,6.67,0,0,1,3.31-.86,6.55,6.55,0,0,1,3.27.72,4.3,4.3,0,0,1,1.84,2.24,7.87,7.87,0,0,1,2.59-2.1,7.11,7.11,0,0,1,3.41-.86A5.54,5.54,0,0,1,136.16,26.45Z"/>
    <path class="a6919e54-9ea6-489b-a72b-b0a74d0f2978" d="M144.26,43.16c-1.68-1.83-2.51-4.38-2.51-7.63,0-3.66.83-6.34,2.51-8a9.32,9.32,0,0,1,6.94-2.56,8.08,8.08,0,0,1,4.8,1.34,7.65,7.65,0,0,1,2.73,3.58,14.13,14.13,0,0,1,.87,5.1,1.72,1.72,0,0,1-.39.88,5.75,5.75,0,0,1-.86,1,1.37,1.37,0,0,1-.75.44h-9.9A4.42,4.42,0,0,0,149,40.4a4.8,4.8,0,0,0,3.14.93,7.15,7.15,0,0,0,2-.25,17.4,17.4,0,0,0,1.89-.67,2.55,2.55,0,0,1,.83-.28,1.24,1.24,0,0,1,.86.55,5.36,5.36,0,0,1,.81,1.28,2.86,2.86,0,0,1,.34,1.12c0,.6-.4,1.11-1.21,1.53a10.86,10.86,0,0,1-2.87,1,15,15,0,0,1-2.89.33C148.48,45.9,145.94,45,144.26,43.16ZM154,33.41a5.29,5.29,0,0,0-.7-2.88,2.34,2.34,0,0,0-2.1-1.08q-2.89,0-3.5,4Z"/>
  </g>
  <g>
    <polyline class="f48d47b5-f9cc-4c68-9775-809ff0fb8bdd" points="27.86 12.46 11.99 21.62 11.99 39.93"/>
    <polyline class="ada278d7-0b28-4154-800a-11e380b793fb" points="43.72 39.93 43.72 21.62 27.86 12.46"/>
    <polyline class="a5b4495e-d98b-4b59-85c4-334f7106d0d4" points="11.99 39.93 27.86 49.09 43.72 39.93"/>
  </g>
</svg>
