<svg id="a4e82210-9f2c-4459-bd1a-28b393451ed1" data-name="Layer 2" xmlns="http://www.w3.org/2000/svg" width="60mm" height="20mm" viewBox="0 0 170.08 56.69">
  <defs>
    <style>
      .f64b67c4-bc83-4545-89bb-da5bbe380643 {
        fill: #3d5164;
      }

      .f49a1f44-d198-479b-8f75-6dd84106b7be {
        opacity: 0.8;
      }

      .a7128056-b7c8-4a82-bc15-4f37628386bb, .ac82c440-566e-4633-b506-d9d1a8a885cc, .b9af4e5e-f2bb-4825-a004-a6388c1ec80b {
        opacity: 0.65;
      }

      .a7128056-b7c8-4a82-bc15-4f37628386bb {
        fill: #4a148c;
      }

      .b9af4e5e-f2bb-4825-a004-a6388c1ec80b {
        fill: #9c27b0;
      }

      .bf550894-9965-4b9b-8e66-1be13c0367f9 {
        opacity: 0.9;
      }
    </style>
  </defs>
  <g>
    <path class="f64b67c4-bc83-4545-89bb-da5bbe380643" d="M60.65,44.85V20a1,1,0,0,1,.57-.95A3.79,3.79,0,0,1,63,18.69h1.66a4.51,4.51,0,0,1,1.55.22,1.92,1.92,0,0,1,1,.85L76.4,33.91l1,1.58V20A1,1,0,0,1,78,19a3.79,3.79,0,0,1,1.77-.32H80.9a3.77,3.77,0,0,1,1.77.32,1,1,0,0,1,.55.95V44.85c0,.82-.77,1.23-2.32,1.23H79.42a4.77,4.77,0,0,1-1.56-.21,1.92,1.92,0,0,1-1-.82L67.25,30.33l-.83-1.23V44.85c0,.82-.77,1.23-2.32,1.23H63Q60.65,46.08,60.65,44.85Z"/>
    <path class="f64b67c4-bc83-4545-89bb-da5bbe380643" d="M88.94,44.77a6,6,0,0,1-1.39-4.14,7.5,7.5,0,0,1,.81-3.51,6.39,6.39,0,0,1,3.28-2.64,18.5,18.5,0,0,1,7.07-1.07V32.12A2,2,0,0,0,98,30.44a3.8,3.8,0,0,0-2.3-.55,8.25,8.25,0,0,0-2.25.27,19.92,19.92,0,0,0-2,.74,2.85,2.85,0,0,1-.7.26c-.26,0-.55-.2-.86-.59A6.73,6.73,0,0,1,89,29.21a3.22,3.22,0,0,1-.35-1.16c0-.45.32-.88,1-1.3a8.45,8.45,0,0,1,2.68-1,17.69,17.69,0,0,1,3.79-.38c2.91,0,5,.58,6.36,1.74a6,6,0,0,1,2,4.76v7.28c0,1.21,0,2.15.1,2.82s.16,1.34.28,2a5.53,5.53,0,0,1,.1.84c0,.29-.27.53-.82.72a8.62,8.62,0,0,1-1.87.41,14,14,0,0,1-1.68.14,1,1,0,0,1-1-.58,5.5,5.5,0,0,1-.47-1.59c0-.09,0-.18,0-.26a1.31,1.31,0,0,0-.06-.27,5.5,5.5,0,0,1-.93,1.12,7.09,7.09,0,0,1-1.94,1.28,6.52,6.52,0,0,1-2.84.58A5.54,5.54,0,0,1,88.94,44.77Zm8.33-3.69a4.32,4.32,0,0,0,1.44-1.76V37.17q-5.44,0-5.45,2.87a1.62,1.62,0,0,0,.52,1.25,2,2,0,0,0,1.43.48A3.49,3.49,0,0,0,97.27,41.08Z"/>
    <path class="f64b67c4-bc83-4545-89bb-da5bbe380643" d="M136.15,26.89a6.89,6.89,0,0,1,1.39,4.75V44.85c0,.82-.79,1.23-2.36,1.23H134.1q-2.31,0-2.31-1.23V32.51a2.64,2.64,0,0,0-.54-1.79,2.26,2.26,0,0,0-1.78-.61,2.71,2.71,0,0,0-1.85.66,5.54,5.54,0,0,0-1.22,1.55V44.85q0,1.23-2.34,1.23H123c-1.55,0-2.32-.41-2.32-1.23V32.51a2.69,2.69,0,0,0-.53-1.79,2.25,2.25,0,0,0-1.77-.61,2.68,2.68,0,0,0-1.84.7,4.81,4.81,0,0,0-1.22,1.55V44.85c0,.82-.79,1.23-2.36,1.23h-1.07c-1.55,0-2.32-.41-2.32-1.23V32.51a25.09,25.09,0,0,0-.37-4.66,4.55,4.55,0,0,1-.11-.83c0-.29.27-.52.82-.71a10.09,10.09,0,0,1,1.86-.4,13.4,13.4,0,0,1,1.67-.13,1,1,0,0,1,1,.5,5.8,5.8,0,0,1,.49,1.47l.14.56a7.45,7.45,0,0,1,2.45-2.1,6.76,6.76,0,0,1,3.3-.85,6.55,6.55,0,0,1,3.27.72,4.29,4.29,0,0,1,1.85,2.23,8,8,0,0,1,2.58-2.1,7.21,7.21,0,0,1,3.41-.85A5.54,5.54,0,0,1,136.15,26.89Z"/>
    <path class="f64b67c4-bc83-4545-89bb-da5bbe380643" d="M144.25,43.59q-2.5-2.75-2.51-7.62,0-5.49,2.51-8a9.28,9.28,0,0,1,6.94-2.56A8.08,8.08,0,0,1,156,26.7a7.59,7.59,0,0,1,2.73,3.58,14.1,14.1,0,0,1,.87,5.1,1.77,1.77,0,0,1-.38.88,6.28,6.28,0,0,1-.87,1,1.38,1.38,0,0,1-.74.44h-9.91A4.44,4.44,0,0,0,149,40.84a4.8,4.8,0,0,0,3.14.93,7.55,7.55,0,0,0,2-.25,17.4,17.4,0,0,0,1.89-.67,2.66,2.66,0,0,1,.83-.29,1.27,1.27,0,0,1,.87.56,6.07,6.07,0,0,1,.81,1.28,3,3,0,0,1,.34,1.12c0,.6-.41,1.11-1.22,1.53a10.79,10.79,0,0,1-2.86,1,15,15,0,0,1-2.9.33Q146.77,46.34,144.25,43.59ZM154,33.85a5.2,5.2,0,0,0-.7-2.88,2.34,2.34,0,0,0-2.1-1.08c-1.93,0-3.09,1.32-3.5,4Z"/>
  </g>
  <g class="f49a1f44-d198-479b-8f75-6dd84106b7be">
    <g class="ac82c440-566e-4633-b506-d9d1a8a885cc">
      <polygon class="a7128056-b7c8-4a82-bc15-4f37628386bb" points="9.58 19.22 9.58 41.01 26.9 29.22 26.9 9.22 9.58 19.22"/>
    </g>
    <g class="ac82c440-566e-4633-b506-d9d1a8a885cc">
      <polygon class="b9af4e5e-f2bb-4825-a004-a6388c1ec80b" points="47.23 19.22 29.91 9.22 29.91 29.22 47.23 41.01 47.23 19.22"/>
    </g>
    <g class="bf550894-9965-4b9b-8e66-1be13c0367f9">
      <polygon class="b9af4e5e-f2bb-4825-a004-a6388c1ec80b" points="47.23 19.22 29.91 29.22 29.91 51.01 47.23 41.01 47.23 19.22"/>
    </g>
    <g class="bf550894-9965-4b9b-8e66-1be13c0367f9">
      <polygon class="a7128056-b7c8-4a82-bc15-4f37628386bb" points="9.58 19.22 9.58 41.01 26.9 51.01 26.9 29.22 9.58 19.22"/>
    </g>
  </g>
</svg>
